<?xml version="1.0" standalone="no"?>
<!DOCTYPE svg PUBLIC "-//W3C//DTD SVG 20010904//EN"
 "http://www.w3.org/TR/2001/REC-SVG-20010904/DTD/svg10.dtd">
<svg version="1.0" xmlns="http://www.w3.org/2000/svg"
 width="512.000000pt" height="512.000000pt" viewBox="0 0 512.000000 512.000000"
 preserveAspectRatio="xMidYMid meet">
<metadata>
Created by potrace 1.11, written by Peter Selinger 2001-2013
</metadata>
<g transform="translate(0.000000,512.000000) scale(0.100000,-0.100000)"
fill="#000000" stroke="none">
<path d="M2492 4927 c3 -32 3 -32 -31 -28 -32 3 -33 2 -27 -23 6 -24 4 -26
-24 -26 -27 0 -30 -3 -30 -30 0 -26 -3 -30 -29 -30 -27 0 -28 -2 -29 -47 0
-76 -1 -78 -13 -66 -20 20 -49 3 -49 -29 0 -27 -3 -30 -28 -26 -27 4 -28 3
-28 -51 0 -52 -2 -56 -25 -56 -20 0 -24 -5 -23 -27 0 -25 -3 -28 -32 -28 -30
0 -33 -3 -31 -27 2 -22 -3 -28 -18 -29 -11 -1 -25 -2 -31 -3 -7 -1 -10 -22 -9
-56 2 -54 2 -55 -25 -55 -29 0 -44 -19 -34 -44 4 -10 -4 -13 -28 -12 -29 0
-33 -2 -32 -25 0 -21 -5 -26 -23 -26 -32 0 -34 -4 -35 -63 0 -37 -3 -50 -12
-47 -17 7 -33 -4 -36 -23 -1 -8 -2 -106 -1 -218 l1 -202 26 4 25 5 -2 -119
c-1 -65 2 -123 5 -129 4 -6 3 -11 -1 -11 -10 0 -9 -53 2 -69 3 -6 2 -11 -2
-11 -5 0 -8 -15 -6 -32 2 -18 3 -57 3 -85 -1 -50 0 -53 24 -53 21 0 26 -5 26
-25 0 -21 -5 -25 -29 -25 -23 0 -30 5 -33 22 -2 18 -11 22 -50 25 l-48 4 -1
-53 c-2 -181 -2 -183 -29 -183 -25 0 -25 -1 -28 -100 -1 -55 -4 -105 -6 -111
-2 -6 -18 -9 -35 -6 -26 4 -30 8 -27 27 5 25 -14 38 -39 29 -16 -6 -16 -5 -19
76 -1 43 -3 45 -30 42 -26 -3 -28 -1 -24 22 6 28 3 29 -79 26 -37 -1 -42 1
-38 18 5 29 -6 38 -47 39 -74 2 -75 2 -74 25 1 18 -6 24 -34 28 -20 4 -57 6
-83 5 -45 -1 -47 0 -47 27 0 29 -13 34 -93 28 -24 -1 -27 2 -27 27 0 28 -2 29
-54 31 l-54 2 2 -403 c1 -221 5 -408 10 -415 5 -8 16 -12 26 -9 25 6 25 3 24
-448 l0 -390 25 0 c16 0 27 -6 27 -15 1 -8 2 -20 3 -27 0 -6 16 -13 34 -15 28
-3 32 -6 29 -29 -3 -24 0 -26 27 -23 22 3 31 -1 32 -11 4 -43 5 -44 62 -46 43
-2 46 -4 43 -26 -5 -23 4 -28 47 -23 9 1 17 -2 16 -7 -5 -31 3 -54 19 -52 35
3 42 -2 42 -28 0 -27 1 -28 59 -27 l59 0 -5 -28 c-4 -28 5 -34 45 -29 11 2 17
-18 12 -48 -1 -10 7 -12 28 -9 28 4 30 2 28 -26 -1 -28 2 -31 27 -30 15 1 28
-3 28 -7 1 -5 2 -13 3 -18 2 -18 14 -22 63 -23 38 -2 50 -6 50 -18 0 -42 3
-46 33 -44 24 2 31 -2 29 -14 -3 -34 2 -40 26 -37 21 2 25 -2 25 -26 0 -30 10
-34 80 -31 28 2 42 -15 34 -40 -4 -15 1 -18 29 -18 34 0 35 -1 30 -31 -4 -25
-1 -30 14 -29 41 5 52 0 48 -20 -4 -22 0 -23 60 -24 35 -1 40 -4 42 -26 2 -14
5 -36 7 -50 2 -14 5 -28 5 -32 1 -4 13 -8 29 -10 23 -3 27 -7 24 -29 -3 -24 0
-26 26 -23 26 3 29 1 28 -29 -1 -28 3 -32 29 -37 24 -4 30 -10 30 -30 0 -20 5
-24 30 -24 22 0 31 -5 35 -20 5 -16 16 -21 50 -24 48 -4 63 -16 54 -44 -5 -16
4 -18 85 -18 l91 0 0 30 c0 27 3 30 30 30 25 0 30 4 30 24 0 19 5 24 18 21 28
-5 46 10 39 34 -4 18 -1 21 23 21 25 0 28 3 26 30 -2 26 1 29 28 32 27 3 31 7
30 31 -1 22 3 27 22 27 13 0 24 3 25 8 0 4 2 16 4 27 4 18 5 49 5 110 0 11 2
29 4 40 3 11 5 23 5 28 1 4 12 7 26 7 14 0 26 6 26 13 1 6 2 19 3 26 1 10 15
16 45 18 48 3 52 5 55 25 3 26 16 35 40 31 22 -5 24 -2 22 26 -1 17 3 30 8 30
6 -1 22 -1 35 0 20 1 23 5 19 30 l-4 29 58 -1 c59 -2 64 1 59 40 -1 8 9 11 29
9 28 -3 30 -1 30 29 0 28 3 32 25 30 22 -3 25 1 25 26 0 16 6 29 13 30 6 0 32
2 57 2 32 2 45 6 46 17 1 8 2 20 3 27 0 6 13 13 29 15 21 2 27 8 27 28 0 23 4
25 50 25 63 1 74 8 67 42 -3 22 -2 25 8 17 20 -19 48 -5 45 22 -2 18 2 24 14
23 9 -1 35 -1 59 0 39 1 42 3 42 30 0 26 3 28 30 26 30 -3 34 2 30 42 -1 19 3
21 29 17 29 -5 31 -3 31 25 0 25 4 30 27 33 21 2 29 10 33 29 4 20 11 25 28
24 22 -2 23 1 20 57 -2 32 -1 58 3 58 3 0 4 11 1 25 -4 23 -1 25 32 25 26 0
34 4 30 14 -3 7 -6 46 -7 86 -2 69 -1 71 20 67 30 -6 42 10 41 53 -1 56 1 59
29 62 28 3 28 3 28 85 l0 82 31 -3 31 -2 -4 50 c-3 28 -6 52 -7 54 -8 7 -103
8 -118 0 -10 -5 -18 -5 -18 -1 0 4 -43 8 -95 8 -52 0 -95 -3 -95 -7 0 -4 -8
-4 -17 -1 -15 6 -146 8 -168 3 -5 -1 -20 -2 -32 -1 -18 1 -23 7 -23 30 0 26 3
28 30 26 27 -2 30 0 30 26 0 26 4 29 31 29 29 0 31 2 27 33 -3 31 -2 33 24 29
32 -5 30 -9 32 83 2 80 10 98 37 90 21 -7 20 -14 23 172 2 96 3 103 32 107 21
3 23 13 27 155 l3 112 -85 -3 c-60 -2 -86 -7 -87 -15 -1 -7 -2 -19 -3 -27 -1
-10 -24 -13 -105 -13 -57 0 -108 -3 -114 -7 -6 -3 -9 -16 -7 -29 4 -22 2 -22
-83 -23 -160 -2 -155 -2 -149 -25 6 -23 -1 -27 -62 -32 -47 -4 -46 -3 -53 -72
-2 -23 -9 -31 -28 -35 -22 -5 -25 -11 -28 -55 -4 -54 -14 -67 -46 -55 -20 7
-21 13 -18 113 l3 107 -80 -3 c-56 -1 -81 -6 -82 -14 -1 -7 -2 -19 -3 -25 0
-7 -15 -13 -32 -14 -18 0 -39 -4 -47 -7 -9 -3 -25 2 -36 11 -26 23 -12 62 22
62 l23 0 1 216 c1 119 4 219 8 222 4 4 16 7 28 7 22 0 22 2 23 195 1 192 2
195 22 194 29 -2 31 10 29 166 -2 129 -8 167 -27 155 -12 -8 -25 16 -22 41 3
18 -1 21 -27 18 -26 -3 -30 0 -33 24 -3 23 -7 27 -31 25 l-28 -2 3 60 c3 48 1
59 -12 58 -37 -3 -51 2 -49 19 3 34 -1 42 -26 42 -26 0 -27 2 -30 80 0 14 -6
26 -13 26 -7 1 -19 2 -27 3 -9 0 -15 7 -14 14 4 31 -2 38 -28 35 -28 -3 -28
-2 -28 55 0 58 0 58 -27 55 -32 -5 -34 0 -34 67 1 50 0 51 -26 47 -16 -3 -29
1 -29 7 -1 6 -2 21 -3 34 -1 18 -6 21 -29 19 -23 -3 -27 0 -27 22 0 26 -7 30
-43 26 -13 -1 -18 4 -17 17 4 36 0 43 -26 43 -24 0 -26 -3 -22 -33z"/>
</g>
</svg>
