<?xml version="1.0" standalone="no"?>
<!DOCTYPE svg PUBLIC "-//W3C//DTD SVG 20010904//EN"
 "http://www.w3.org/TR/2001/REC-SVG-20010904/DTD/svg10.dtd">
<svg version="1.0" xmlns="http://www.w3.org/2000/svg"
 width="512.000000pt" height="512.000000pt" viewBox="0 0 512.000000 512.000000"
 preserveAspectRatio="xMidYMid meet">
<metadata>
Created by potrace 1.11, written by Peter Selinger 2001-2013
</metadata>
<g transform="translate(0.000000,512.000000) scale(0.100000,-0.100000)"
fill="#000000" stroke="none">
<path d="M2535 4902 c-26 -34 -417 -515 -425 -522 -29 -28 -200 -252 -196
-258 2 -4 7 -30 10 -57 4 -28 8 -59 10 -70 2 -11 7 -49 11 -85 4 -36 9 -74 11
-85 2 -10 6 -37 9 -60 5 -38 12 -89 20 -145 3 -23 13 -99 21 -160 2 -16 -41
-112 -124 -278 l-127 -254 -45 7 c-25 4 -61 9 -80 11 -19 3 -46 7 -60 9 -14 3
-45 7 -70 11 -25 3 -70 9 -100 14 -30 6 -72 12 -94 15 -21 2 -57 7 -80 11 -94
15 -84 24 -151 -132 -33 -77 -72 -168 -88 -202 -15 -34 -27 -64 -27 -66 0 -3
-13 -33 -29 -68 -43 -93 -46 -109 -20 -138 13 -14 41 -45 63 -70 23 -25 70
-79 106 -120 36 -40 74 -84 85 -96 26 -28 134 -150 158 -178 10 -12 30 -34 45
-51 102 -112 164 -185 158 -186 -3 -1 -9 -2 -13 -3 -5 -2 -35 -6 -68 -11 -33
-5 -63 -10 -67 -11 -5 -1 -20 -2 -35 -3 -43 -2 -51 -12 -58 -71 -6 -61 -14
-126 -20 -180 -10 -77 -25 -208 -30 -255 -2 -27 -7 -70 -10 -95 l-5 -45 196
-120 c108 -66 215 -132 238 -146 52 -34 613 -380 645 -400 14 -8 52 -33 84
-57 33 -23 63 -42 68 -42 5 0 33 -16 63 -35 l54 -34 34 22 c19 12 49 31 68 41
19 11 58 34 85 52 43 27 576 346 658 393 66 37 199 116 274 163 34 21 65 38
68 38 4 0 26 14 50 30 24 17 46 30 50 30 3 0 24 12 46 27 l41 27 -7 85 c-3 47
-8 104 -11 126 -3 22 -7 58 -9 80 -7 89 -18 201 -21 215 -1 8 -3 35 -3 60 -1
25 -5 51 -9 58 -5 7 -72 23 -151 37 -79 13 -145 25 -146 27 -3 3 71 81 403
423 90 94 183 189 205 212 l40 42 -73 193 c-40 106 -89 236 -108 288 -39 105
-48 121 -65 115 -7 -2 -43 -6 -82 -10 -38 -4 -90 -8 -115 -11 -79 -7 -150 -14
-193 -19 -47 -5 -149 -15 -188 -19 -22 -2 -31 7 -58 59 -252 470 -243 450
-235 502 3 26 8 57 10 68 2 11 6 40 9 65 6 47 14 107 20 150 2 14 11 79 20
145 24 179 25 189 29 211 3 15 -25 57 -97 146 -56 68 -117 143 -135 166 -19
22 -41 50 -50 60 -10 11 -93 114 -187 230 -93 116 -172 211 -175 211 -3 0 -14
-12 -25 -27z"/>
</g>
</svg>
